<svg width="90" height="90" viewBox="0 0 90 90" fill="none" xmlns="http://www.w3.org/2000/svg">
<path d="M6.15936 0.703125L13.2293 80.074L44.9529 88.9193L76.7651 80.0416L83.8406 0.703125H6.15936ZM69.153 18.8873L66.7997 45.3284L66.8067 45.4711L66.7969 45.7995V45.7966L65.1248 64.2846L64.9406 65.9271L45 71.4424V71.4431L44.9845 71.4565L25.0783 65.9102L23.7305 50.625H33.4919L34.1845 58.3973L45.0028 61.3294L45 61.335V61.3336L55.8583 58.3601L57.0058 45.7031H34.3069L34.1121 43.5635L33.6684 38.5509L33.4357 35.8594H57.8686L58.7573 26.0156H21.5437L21.349 23.8774L20.906 18.8634L20.6726 16.1719H69.3858L69.153 18.8873V18.8873Z" fill="white"/>
</svg>
