<svg width="50" height="50" viewBox="0 0 50 50" fill="none" xmlns="http://www.w3.org/2000/svg">
<path d="M4.16669 18.75V14.5833C4.16669 8.33333 8.33335 4.16667 14.5834 4.16667H35.4167C41.6667 4.16667 45.8334 8.33333 45.8334 14.5833V18.75" stroke="#4267C5" stroke-width="2" stroke-miterlimit="10" stroke-linecap="round" stroke-linejoin="round"/>
<path d="M4.16669 31.25V35.4167C4.16669 41.6667 8.33335 45.8333 14.5834 45.8333H35.4167C41.6667 45.8333 45.8334 41.6667 45.8334 35.4167V31.25" stroke="#4267C5" stroke-width="2" stroke-miterlimit="10" stroke-linecap="round" stroke-linejoin="round"/>
<path d="M13.9583 19.2917V19.2917C20.7376 23.2186 29.1807 23.2633 35.9583 19.3334V19.3334" stroke="#4267C5" stroke-width="2" stroke-linecap="round" stroke-linejoin="round"/>
<path d="M25 37.0209V25.6667" stroke="#4267C5" stroke-width="2" stroke-linecap="round" stroke-linejoin="round"/>
<path d="M22.4166 13.1042L15.75 16.8126C14.25 17.6459 13 19.75 13 21.4792V28.5417C13 30.2709 14.2292 32.375 15.75 33.2084L22.4166 36.9166C23.8333 37.7083 26.1667 37.7083 27.6042 36.9166L34.2708 33.2084C35.7708 32.375 37.0208 30.2709 37.0208 28.5417V21.4792C37.0208 19.75 35.7916 17.6459 34.2708 16.8126L27.6042 13.1042C26.1667 12.2917 23.8333 12.2917 22.4166 13.1042Z" stroke="#4267C5" stroke-width="2" stroke-linecap="round" stroke-linejoin="round"/>
</svg>
