<svg width="50" height="50" viewBox="0 0 50 50" fill="none" xmlns="http://www.w3.org/2000/svg">
<path d="M20.9375 5.27085L8.39584 13.4583C4.37501 16.0833 4.37501 21.9583 8.39584 24.5833L20.9375 32.7708C23.1875 34.25 26.8958 34.25 29.1458 32.7708L41.625 24.5833C45.625 21.9583 45.625 16.1042 41.625 13.4792L29.1458 5.29168C26.8958 3.79168 23.1875 3.79168 20.9375 5.27085Z" stroke="#4267C5" stroke-width="2" stroke-linecap="round" stroke-linejoin="round"/>
<path d="M11.7292 27.25L11.7083 37.0208C11.7083 39.6666 13.75 42.5 16.25 43.3333L22.8958 45.5416C24.0417 45.9166 25.9375 45.9166 27.1042 45.5416L33.75 43.3333C36.25 42.5 38.2917 39.6666 38.2917 37.0208V27.3541" stroke="#4267C5" stroke-width="2" stroke-linecap="round" stroke-linejoin="round"/>
<path d="M44.5833 31.25V18.75" stroke="#4267C5" stroke-width="2" stroke-linecap="round" stroke-linejoin="round"/>
</svg>
