<svg width="50" height="50" viewBox="0 0 50 50" fill="none" xmlns="http://www.w3.org/2000/svg">
<path d="M43.0937 30.3509C40.8379 33.7529 38.7917 37.5946 39.2917 41.6458V41.6458C39.5 43.375 37.6458 44.5833 36.1667 43.6874L27.7544 38.6883C27.547 38.565 27.3041 38.5009 27.0628 38.4968V38.4968C26.0024 38.4786 25.5028 37.2232 25.9849 36.2786C26.6899 34.8972 27.0833 33.3534 27.0833 31.7291C27.0833 25.8125 21.9583 21.0209 15.625 21.0209C13.7833 21.0209 12.0506 21.4201 10.5097 22.1449C9.84816 22.456 9.04166 22.0643 9.04166 21.3333V21.3333C9.04166 11.8541 17.2708 4.16667 27.4375 4.16667C37.6042 4.16667 45.8333 11.8541 45.8333 21.3333C45.8333 24.6453 44.8294 27.7334 43.0937 30.3509Z" stroke="#4267C5" stroke-width="2" stroke-linecap="round" stroke-linejoin="round"/>
<path d="M27.0833 31.7291C27.0833 34.2083 26.1667 36.5 24.625 38.3125C23.8106 39.2996 22.8079 40.1471 21.6668 40.8113C18.0892 42.8935 13.7466 43.5321 10.1875 45.6458V45.6458C9.27082 46.2083 8.10415 45.4375 8.22915 44.375V44.375C8.54924 41.8527 7.27078 39.4582 5.86612 37.339C4.78689 35.7107 4.16666 33.7884 4.16666 31.7291C4.16666 28.0625 6.125 24.8333 9.125 22.9167C10.9792 21.7083 13.2083 21.0209 15.625 21.0209C21.9583 21.0209 27.0833 25.8125 27.0833 31.7291Z" stroke="#4267C5" stroke-width="2" stroke-linecap="round" stroke-linejoin="round"/>
</svg>
