<svg width="186" height="36" viewBox="0 0 186 36" fill="none" xmlns="http://www.w3.org/2000/svg">
<path d="M52.0539 9.152C53.8299 9.152 55.3819 9.504 56.7099 10.208C58.0379 10.912 59.0619 11.904 59.7819 13.184C60.5179 14.448 60.8859 15.912 60.8859 17.576C60.8859 19.224 60.5179 20.688 59.7819 21.968C59.0619 23.248 58.0299 24.24 56.6859 24.944C55.3579 25.648 53.8139 26 52.0539 26H45.7419V9.152H52.0539ZM51.7899 22.448C53.3419 22.448 54.5499 22.024 55.4139 21.176C56.2779 20.328 56.7099 19.128 56.7099 17.576C56.7099 16.024 56.2779 14.816 55.4139 13.952C54.5499 13.088 53.3419 12.656 51.7899 12.656H49.8459V22.448H51.7899ZM75.8034 19.088C75.8034 19.472 75.7794 19.872 75.7314 20.288H66.4434C66.5074 21.12 66.7714 21.76 67.2354 22.208C67.7154 22.64 68.2994 22.856 68.9874 22.856C70.0114 22.856 70.7234 22.424 71.1234 21.56H75.4914C75.2674 22.44 74.8594 23.232 74.2674 23.936C73.6914 24.64 72.9634 25.192 72.0834 25.592C71.2034 25.992 70.2194 26.192 69.1314 26.192C67.8194 26.192 66.6514 25.912 65.6274 25.352C64.6034 24.792 63.8034 23.992 63.2274 22.952C62.6514 21.912 62.3634 20.696 62.3634 19.304C62.3634 17.912 62.6434 16.696 63.2034 15.656C63.7794 14.616 64.5794 13.816 65.6034 13.256C66.6274 12.696 67.8034 12.416 69.1314 12.416C70.4274 12.416 71.5794 12.688 72.5874 13.232C73.5954 13.776 74.3794 14.552 74.9394 15.56C75.5154 16.568 75.8034 17.744 75.8034 19.088ZM71.6034 18.008C71.6034 17.304 71.3634 16.744 70.8834 16.328C70.4034 15.912 69.8034 15.704 69.0834 15.704C68.3954 15.704 67.8114 15.904 67.3314 16.304C66.8674 16.704 66.5794 17.272 66.4674 18.008H71.6034ZM83.9925 22.16L86.8965 12.608H91.2645L86.5125 26H81.4485L76.6965 12.608H81.0885L83.9925 22.16ZM98.0079 26.216C96.9999 26.216 96.0959 26.048 95.2959 25.712C94.4959 25.36 93.8639 24.88 93.3999 24.272C92.9359 23.648 92.6799 22.936 92.6319 22.136H94.8879C94.9519 22.792 95.2559 23.328 95.7999 23.744C96.3599 24.16 97.0879 24.368 97.9839 24.368C98.8159 24.368 99.4719 24.184 99.9519 23.816C100.432 23.448 100.672 22.984 100.672 22.424C100.672 21.848 100.416 21.424 99.9039 21.152C99.3919 20.864 98.5999 20.584 97.5279 20.312C96.5519 20.056 95.7519 19.8 95.1279 19.544C94.5199 19.272 93.9919 18.88 93.5439 18.368C93.1119 17.84 92.8959 17.152 92.8959 16.304C92.8959 15.632 93.0959 15.016 93.4959 14.456C93.8959 13.896 94.4639 13.456 95.1999 13.136C95.9359 12.8 96.7759 12.632 97.7199 12.632C99.1759 12.632 100.352 13 101.248 13.736C102.144 14.472 102.624 15.48 102.688 16.76H100.504C100.456 16.072 100.176 15.52 99.6639 15.104C99.1679 14.688 98.4959 14.48 97.6479 14.48C96.8639 14.48 96.2399 14.648 95.7759 14.984C95.3119 15.32 95.0799 15.76 95.0799 16.304C95.0799 16.736 95.2159 17.096 95.4879 17.384C95.7759 17.656 96.1279 17.88 96.5439 18.056C96.9759 18.216 97.5679 18.4 98.3199 18.608C99.2639 18.864 100.032 19.12 100.624 19.376C101.216 19.616 101.72 19.984 102.136 20.48C102.568 20.976 102.792 21.624 102.808 22.424C102.808 23.144 102.608 23.792 102.208 24.368C101.808 24.944 101.24 25.4 100.504 25.736C99.7839 26.056 98.9519 26.216 98.0079 26.216ZM105.075 19.376C105.075 18.032 105.347 16.856 105.891 15.848C106.435 14.824 107.179 14.032 108.123 13.472C109.083 12.912 110.147 12.632 111.315 12.632C112.467 12.632 113.467 12.88 114.315 13.376C115.163 13.872 115.795 14.496 116.211 15.248V12.848H118.419V26H116.211V23.552C115.779 24.32 115.131 24.96 114.267 25.472C113.419 25.968 112.427 26.216 111.291 26.216C110.123 26.216 109.067 25.928 108.123 25.352C107.179 24.776 106.435 23.968 105.891 22.928C105.347 21.888 105.075 20.704 105.075 19.376ZM116.211 19.4C116.211 18.408 116.011 17.544 115.611 16.808C115.211 16.072 114.667 15.512 113.979 15.128C113.307 14.728 112.563 14.528 111.747 14.528C110.931 14.528 110.187 14.72 109.515 15.104C108.843 15.488 108.307 16.048 107.907 16.784C107.507 17.52 107.307 18.384 107.307 19.376C107.307 20.384 107.507 21.264 107.907 22.016C108.307 22.752 108.843 23.32 109.515 23.72C110.187 24.104 110.931 24.296 111.747 24.296C112.563 24.296 113.307 24.104 113.979 23.72C114.667 23.32 115.211 22.752 115.611 22.016C116.011 21.264 116.211 20.392 116.211 19.4ZM128.518 12.608C130.118 12.608 131.414 13.096 132.406 14.072C133.398 15.032 133.894 16.424 133.894 18.248V26H131.734V18.56C131.734 17.248 131.406 16.248 130.75 15.56C130.094 14.856 129.198 14.504 128.062 14.504C126.91 14.504 125.99 14.864 125.302 15.584C124.63 16.304 124.294 17.352 124.294 18.728V26H122.11V12.848H124.294V14.72C124.726 14.048 125.31 13.528 126.046 13.16C126.798 12.792 127.622 12.608 128.518 12.608ZM140.125 14.648V22.4C140.125 23.04 140.261 23.496 140.533 23.768C140.805 24.024 141.277 24.152 141.949 24.152H143.557V26H141.589C140.373 26 139.461 25.72 138.853 25.16C138.245 24.6 137.941 23.68 137.941 22.4V14.648H136.237V12.848H137.941V9.536H140.125V12.848H143.557V14.648H140.125ZM145.387 19.376C145.387 18.032 145.659 16.856 146.203 15.848C146.747 14.824 147.491 14.032 148.435 13.472C149.395 12.912 150.459 12.632 151.627 12.632C152.779 12.632 153.779 12.88 154.627 13.376C155.475 13.872 156.107 14.496 156.523 15.248V12.848H158.731V26H156.523V23.552C156.091 24.32 155.443 24.96 154.579 25.472C153.731 25.968 152.739 26.216 151.603 26.216C150.435 26.216 149.379 25.928 148.435 25.352C147.491 24.776 146.747 23.968 146.203 22.928C145.659 21.888 145.387 20.704 145.387 19.376ZM156.523 19.4C156.523 18.408 156.323 17.544 155.923 16.808C155.523 16.072 154.979 15.512 154.291 15.128C153.619 14.728 152.875 14.528 152.059 14.528C151.243 14.528 150.499 14.72 149.827 15.104C149.155 15.488 148.619 16.048 148.219 16.784C147.819 17.52 147.619 18.384 147.619 19.376C147.619 20.384 147.819 21.264 148.219 22.016C148.619 22.752 149.155 23.32 149.827 23.72C150.499 24.104 151.243 24.296 152.059 24.296C152.875 24.296 153.619 24.104 154.291 23.72C154.979 23.32 155.523 22.752 155.923 22.016C156.323 21.264 156.523 20.392 156.523 19.4ZM164.606 14.984C164.99 14.232 165.534 13.648 166.238 13.232C166.958 12.816 167.83 12.608 168.854 12.608V14.864H168.278C165.83 14.864 164.606 16.192 164.606 18.848V26H162.422V12.848H164.606V14.984ZM170.559 19.376C170.559 18.032 170.831 16.856 171.375 15.848C171.919 14.824 172.663 14.032 173.607 13.472C174.567 12.912 175.631 12.632 176.799 12.632C177.951 12.632 178.951 12.88 179.799 13.376C180.647 13.872 181.279 14.496 181.695 15.248V12.848H183.903V26H181.695V23.552C181.263 24.32 180.615 24.96 179.751 25.472C178.903 25.968 177.911 26.216 176.775 26.216C175.607 26.216 174.551 25.928 173.607 25.352C172.663 24.776 171.919 23.968 171.375 22.928C170.831 21.888 170.559 20.704 170.559 19.376ZM181.695 19.4C181.695 18.408 181.495 17.544 181.095 16.808C180.695 16.072 180.151 15.512 179.463 15.128C178.791 14.728 178.047 14.528 177.231 14.528C176.415 14.528 175.671 14.72 174.999 15.104C174.327 15.488 173.791 16.048 173.391 16.784C172.991 17.52 172.791 18.384 172.791 19.376C172.791 20.384 172.991 21.264 173.391 22.016C173.791 22.752 174.327 23.32 174.999 23.72C175.671 24.104 176.415 24.296 177.231 24.296C178.047 24.296 178.791 24.104 179.463 23.72C180.151 23.32 180.695 22.752 181.095 22.016C181.495 21.264 181.695 20.392 181.695 19.4Z" fill="#4267C5"/>
<path fill-rule="evenodd" clip-rule="evenodd" d="M18.8622 0.230475C18.33 -0.0768249 17.6718 -0.0768249 17.1466 0.230475L2.9044 8.37303C2.36168 8.6786 2.04651 9.2411 2.04651 9.84877V26.1512C2.04651 26.7589 2.37915 27.3214 2.92187 27.627L17.1466 35.7695C17.6718 36.0768 18.33 36.0768 18.8622 35.7695L33.0956 27.627C33.6279 27.3214 33.9535 26.7589 33.9535 26.1512V9.84877C33.9535 9.2411 33.6279 8.6786 33.0956 8.37303L18.8622 0.230475ZM6.48574 11.4317L18.004 4.84645L29.5143 11.4312V24.5689L18.0049 31.153L6.48574 24.5593V11.4317Z" fill="#4267C5"/>
<path d="M17.4173 11.7892C18.7313 11.7892 19.8796 12.0491 20.8622 12.569C21.8448 13.0889 22.6023 13.8214 23.1351 14.7666C23.6796 15.7 23.9519 16.7811 23.9519 18.01C23.9519 19.2269 23.6796 20.308 23.1351 21.2533C22.6023 22.1986 21.8388 22.931 20.8444 23.4509C19.8618 23.9709 18.7195 24.2308 17.4173 24.2308H12.7473V11.7892H17.4173ZM17.222 21.6077C18.3702 21.6077 19.264 21.2947 19.9033 20.6684C20.5425 20.0422 20.8622 19.156 20.8622 18.01C20.8622 16.8639 20.5425 15.9718 19.9033 15.3338C19.264 14.6957 18.3702 14.3767 17.222 14.3767H15.7837V21.6077H17.222Z" fill="#4267C5"/>
</svg>
