<svg width="512" height="512" viewBox="0 0 512 512" fill="none" xmlns="http://www.w3.org/2000/svg">
<path fill-rule="evenodd" clip-rule="evenodd" d="M268.262 3.27786C260.694 -1.09262 251.332 -1.09262 243.862 3.27786L41.307 119.083C33.5883 123.429 29.1059 131.429 29.1059 140.071V371.929C29.1059 380.572 33.8368 388.571 41.5555 392.917L243.862 508.721C251.332 513.093 260.694 513.093 268.262 508.721L470.693 392.917C478.263 388.571 482.894 380.572 482.894 371.929V140.071C482.894 131.429 478.263 123.429 470.693 119.083L268.262 3.27786ZM92.2417 162.584L256.057 68.9272L419.758 162.577V349.424L256.069 443.065L92.2417 349.288V162.584Z" fill="#4267C5"/>
<path d="M247.713 167.668C266.402 167.668 282.732 171.365 296.707 178.759C310.681 186.153 321.456 196.571 329.032 210.014C336.776 223.289 340.649 238.665 340.649 256.142C340.649 273.449 336.776 288.825 329.032 302.269C321.456 315.713 310.597 326.13 296.454 333.525C282.48 340.919 266.234 344.615 247.713 344.615H181.295V167.668H247.713ZM244.935 307.31C261.266 307.31 273.978 302.858 283.069 293.951C292.161 285.044 296.707 272.441 296.707 256.142C296.707 239.842 292.161 227.155 283.069 218.08C273.978 209.006 261.266 204.469 244.935 204.469H224.479V307.31H244.935Z" fill="#4267C5"/>
</svg>
