<svg width="343" height="387" viewBox="0 0 343 387" fill="none" xmlns="http://www.w3.org/2000/svg">
<g clip-path="url(#clip0_210_11)">
<path fill-rule="evenodd" clip-rule="evenodd" d="M180.768 2.4776C175.048 -0.825868 167.972 -0.825868 162.326 2.4776L9.22233 90.0101C3.38805 93.295 0 99.3419 0 105.874V281.126C0 287.659 3.57585 293.705 9.41015 296.99L162.326 384.522C167.972 387.826 175.048 387.826 180.768 384.522L333.778 296.99C339.5 293.705 343 287.659 343 281.126V105.874C343 99.3419 339.5 93.295 333.778 90.0101L180.768 2.4776ZM47.7217 122.891L171.543 52.0993L295.278 122.885V264.116L171.552 334.895L47.7217 264.013V122.891Z" fill="#4267C5"/>
<path d="M165.236 126.734C179.362 126.734 191.706 129.528 202.269 135.117C212.831 140.705 220.975 148.58 226.702 158.741C232.555 168.775 235.483 180.397 235.483 193.607C235.483 206.689 232.555 218.311 226.702 228.473C220.975 238.635 212.767 246.509 202.078 252.098C191.515 257.687 179.235 260.481 165.236 260.481H115.033V126.734H165.236ZM163.137 232.283C175.48 232.283 185.089 228.918 191.961 222.186C198.833 215.453 202.269 205.927 202.269 193.607C202.269 181.287 198.833 171.697 191.961 164.838C185.089 157.979 175.48 154.55 163.137 154.55H147.675V232.283H163.137Z" fill="#4267C5"/>
</g>
<defs>
<clipPath id="clip0_210_11">
<rect width="343" height="387" fill="white"/>
</clipPath>
</defs>
</svg>
