<svg width="90" height="90" viewBox="0 0 90 90" fill="none" xmlns="http://www.w3.org/2000/svg">
<path d="M76.1203 47.1119C80.3582 45.6695 84.9763 44.701 89.9906 44.2432C89.9772 43.4333 89.9431 42.6283 89.8874 41.8292C84.5408 42.3086 79.8028 43.3333 75.6046 44.7573C74.4693 39.911 72.9998 35.5855 71.315 31.7307C75.7693 29.8734 80.4059 27.5844 85.2138 24.7885C84.8512 24.0682 84.4711 23.3581 84.0715 22.6606C79.3036 25.4368 74.7118 27.6984 70.3061 29.5307C66.9987 22.6441 63.0258 17.3724 59.183 13.4131C58.0223 12.2177 56.8526 11.116 55.6854 10.0953C60.0615 8.88228 64.7277 7.97313 69.6832 7.37163C68.6073 6.66474 67.501 6.00065 66.3637 5.38627C62.4619 5.97653 58.82 6.75743 55.4186 7.69832C56.2292 5.3743 57.0466 3.38423 57.736 1.83168C56.9472 1.59931 56.1498 1.38672 55.3435 1.19698C54.5691 2.93782 53.6672 5.15064 52.7934 7.72535C47.9491 4.0084 43.3461 1.68602 39.9275 0.287109C38.2621 0.473945 36.624 0.750208 35.0186 1.11372C37.6588 1.90133 43.8868 4.12849 50.674 9.16271C41.5238 12.3028 34.325 16.6655 28.6546 21.5443C25.1414 14.621 21.351 9.82299 19.643 7.82239C18.9747 8.27914 18.3201 8.75403 17.6785 9.24506C19.2571 11.0907 23.2159 16.0511 26.7848 23.2151C23.3438 26.4347 20.524 29.8364 18.2123 33.2313C11.9003 31.1705 7.09812 28.4841 3.99756 26.4332C3.65744 27.1835 3.33855 27.9451 3.03907 28.7166C6.17465 30.7589 10.8105 33.3015 16.8488 35.3295C15.441 37.5909 14.2434 39.8326 13.2361 41.9968C11.9578 44.7442 10.9254 47.4566 10.0857 50.0721C5.26931 42.3692 2.77768 35.4084 1.81231 32.3278C1.39184 33.7637 1.04066 35.2292 0.763306 36.7206C2.30316 40.8198 4.95876 46.7825 9.17726 53.1277C7.47379 59.3529 6.85487 64.8196 6.64663 68.5449C7.37058 69.7216 8.14567 70.8633 8.97156 71.9651C8.977 69.2411 9.22569 63.1513 11.0083 55.763C11.7763 56.8221 12.584 57.886 13.4422 58.9484C17.2968 63.7171 22.3992 68.7702 28.9751 73.0696C27.3663 76.825 25.3436 80.5396 22.9055 84.2079C23.6077 84.6044 24.3218 84.9823 25.0467 85.3416C27.4993 81.6156 29.4576 77.9402 31.0049 74.3399C34.8115 76.6294 39.0766 78.6552 43.8425 80.2415C42.7872 84.2957 42.3293 87.7199 42.1311 89.9064C42.9343 89.9568 43.7429 89.9864 44.557 89.9944C44.7564 87.9297 45.1954 84.7325 46.1624 80.97C52.2962 82.7636 59.2124 83.8326 66.9908 83.8326C67.2445 83.8326 67.5021 83.8282 67.7579 83.8259C69.0866 83.0453 70.3716 82.199 71.6087 81.2904C62.6614 81.7783 54.3797 80.9161 46.7884 78.7213C47.6367 75.8797 48.7828 72.8069 50.3379 69.71C52.7907 64.8245 55.8401 60.6325 59.4604 57.1252C63.6217 61.8375 69.0251 65.861 75.6351 69.1771C75.5935 72.171 75.443 75.2385 75.1807 78.3774C76.0853 77.5587 76.9554 76.7031 77.7911 75.8143C77.9114 73.9432 77.9925 72.1151 78.034 70.3324C79.0694 70.8047 80.1342 71.26 81.2231 71.7008C81.713 71.0373 82.1847 70.3594 82.6383 69.6686C81.058 69.0387 79.5389 68.3731 78.0725 67.6771C78.0863 59.9905 77.3589 53.1705 76.1203 47.1119ZM54.0858 11.9067C55.2107 12.8873 56.3371 13.9453 57.452 15.0937C61.7459 19.5176 65.29 24.6523 68.0777 30.4279C62.373 32.6445 57.0003 34.1323 51.9898 35.0621C50.853 26.6903 52.2164 18.464 54.0858 11.9067ZM51.6719 11.3186C49.7329 18.1201 48.3478 26.6681 49.5905 35.4719C43.9441 36.3424 38.7884 36.5098 34.1748 36.2325C33.7249 34.4109 33.2143 32.6815 32.6658 31.0595C31.773 28.4173 30.7602 25.9542 29.6993 23.6851C35.7888 18.3082 43.1222 14.1802 51.6719 11.3186ZM27.8318 25.412C28.7439 27.4115 29.6111 29.5559 30.3802 31.8319C30.8546 33.2355 31.2701 34.6357 31.6409 36.0331C28.4264 35.717 25.5014 35.1942 22.8926 34.5626C22.1056 34.3723 21.3406 34.1675 20.5907 33.9554C22.739 30.8445 25.1568 27.9996 27.8318 25.412ZM29.8641 70.8691C24.5471 67.3072 19.7117 62.8517 15.3769 57.5025C14.0849 55.9081 12.9004 54.3033 11.8136 52.7143C12.7179 49.5745 13.9046 46.2663 15.4647 42.9272C16.5888 40.5219 17.8394 38.2392 19.2044 36.069C20.1679 36.3526 21.161 36.6232 22.1877 36.8743C25.1575 37.6004 28.524 38.1883 32.2455 38.5086C34.6939 49.5395 33.8936 60.3604 29.8641 70.8691ZM48.139 68.7096C46.533 71.9226 45.3481 75.0847 44.47 78.0046C40.0289 76.5328 35.8338 74.5888 31.8921 72.1711C36.7645 59.5969 36.6463 48.0418 34.7246 38.6753C35.8911 38.7341 37.0793 38.7735 38.3097 38.7735C41.9354 38.7735 45.8359 38.5001 49.9883 37.858C50.413 40.0222 51.0029 42.1929 51.797 44.3488C53.2596 48.3211 55.3139 51.9809 57.9475 55.322C53.4551 59.6143 50.3145 64.3589 48.139 68.7096ZM59.7484 53.6878C57.3196 50.582 55.4191 47.1957 54.0663 43.5285C53.3251 41.5172 52.7718 39.4843 52.3764 37.4507C57.5829 36.4872 63.1655 34.9391 69.0864 32.6278C70.8521 36.6629 72.2644 40.9921 73.3203 45.5966C67.8798 47.7285 63.41 50.5454 59.7484 53.6878ZM61.2456 55.4869C64.9076 52.3261 69.1069 49.8134 73.8235 47.9449C74.9748 53.7196 75.5825 59.9044 75.642 66.4647C69.7917 63.392 64.9827 59.7273 61.2456 55.4869Z" fill="white"/>
<path d="M74.6552 42.8071C72.7119 42.8071 71.1365 44.382 71.1365 46.3258C71.1365 48.27 72.7121 49.8448 74.6552 49.8448C76.5987 49.8448 78.1741 48.27 78.1741 46.3258C78.1743 44.3818 76.5987 42.8071 74.6552 42.8071Z" fill="white"/>
<path d="M59.4738 51.6547C57.5301 51.6547 55.9545 53.2297 55.9545 55.1737C55.9545 57.1177 57.5303 58.6926 59.4738 58.6926C61.4169 58.6926 62.9923 57.1177 62.9923 55.1737C62.9923 53.2297 61.4169 51.6547 59.4738 51.6547Z" fill="white"/>
<path d="M45.1966 76.1866C43.2532 76.1866 41.6782 77.7617 41.6782 79.7053C41.6782 81.6495 43.2534 83.2244 45.1966 83.2244C47.1399 83.2244 48.7159 81.6493 48.7159 79.7053C48.7159 77.7617 47.1399 76.1866 45.1966 76.1866Z" fill="white"/>
<path d="M30.417 68.9478C28.474 68.9478 26.898 70.5226 26.898 72.4666C26.898 74.4106 28.474 75.9855 30.417 75.9855C32.3603 75.9855 33.9361 74.4104 33.9361 72.4666C33.9363 70.5226 32.3603 68.9478 30.417 68.9478Z" fill="white"/>
<path d="M10.4097 49.3422C8.46603 49.3422 6.89044 50.9168 6.89044 52.861C6.89044 54.805 8.46621 56.3799 10.4097 56.3799C12.3526 56.3799 13.9283 54.8048 13.9283 52.861C13.9283 50.917 12.3526 49.3422 10.4097 49.3422Z" fill="white"/>
<path d="M18.7542 31.0437C16.8111 31.0437 15.2355 32.6187 15.2355 34.5626C15.2355 36.5067 16.8112 38.0816 18.7542 38.0816C20.6978 38.0816 22.2732 36.5066 22.2732 34.5626C22.2732 32.6186 20.6976 31.0437 18.7542 31.0437Z" fill="white"/>
<path d="M33.4334 33.9595C31.4901 33.9595 29.9142 35.5342 29.9142 37.4783C29.9142 39.4223 31.4901 40.9972 33.4334 40.9972C35.3765 40.9972 36.9521 39.4223 36.9521 37.4783C36.9523 35.5342 35.3765 33.9595 33.4334 33.9595Z" fill="white"/>
<path d="M28.1046 19.6825C26.1612 19.6825 24.5858 21.2574 24.5858 23.2014C24.5858 25.1454 26.1613 26.7204 28.1046 26.7204C30.0477 26.7204 31.6233 25.1454 31.6233 23.2014C31.6233 21.2574 30.0477 19.6825 28.1046 19.6825Z" fill="white"/>
<path d="M53.5419 4.80237C51.0989 4.80237 49.1177 6.78174 49.1177 9.2262C49.1177 11.6708 51.0989 13.6499 53.5419 13.6499C55.9845 13.6499 57.9655 11.6708 57.9655 9.2262C57.9655 6.78174 55.9845 4.80237 53.5419 4.80237Z" fill="white"/>
<path d="M50.9276 33.1552C48.9842 33.1552 47.4089 34.7298 47.4089 36.6738C47.4089 38.618 48.9843 40.1927 50.9276 40.1927C52.8709 40.1927 54.4463 38.618 54.4463 36.6738C54.4463 34.7298 52.8711 33.1552 50.9276 33.1552Z" fill="white"/>
<path d="M69.9299 27.5249C67.9866 27.5249 66.4112 29.0998 66.4112 31.0438C66.4112 32.9879 67.9868 34.5626 69.9299 34.5626C71.8733 34.5626 73.4489 32.9879 73.4489 31.0438C73.4489 29.0996 71.8731 27.5249 69.9299 27.5249Z" fill="white"/>
<path d="M76.7666 64.5239C74.8233 64.5239 73.2479 66.0986 73.2479 68.0428C73.2479 69.9868 74.8235 71.5617 76.7666 71.5617C78.71 71.5617 80.2854 69.9868 80.2854 68.0428C80.2854 66.0986 78.71 64.5239 76.7666 64.5239Z" fill="white"/>
<path d="M2.5 45.001C2.5 21.5269 21.5281 2.50049 45.0005 2.50049C68.4719 2.50049 87.5 21.5267 87.5 45.001C87.5 68.4714 68.4719 87.4994 45.0005 87.4994C21.528 87.4994 2.5 68.4714 2.5 45.001Z" stroke="white" stroke-width="5"/>
</svg>
